<svg xmlns="http://www.w3.org/2000/svg" viewBox="0 0 24 24" role="img" aria-labelledby="title">
  <title id="title">GitHub</title>
  <path fill="#e2e8f0" d="M12 .5A11.5 11.5 0 0 0 8.36 22.9c.58.1.79-.25.79-.56v-2.02c-3.23.7-3.91-1.39-3.91-1.39-.53-1.34-1.29-1.7-1.29-1.7-1.05-.72.08-.7.08-.7 1.16.08 1.77 1.2 1.77 1.2 1.04 1.76 2.72 1.25 3.38.95.11-.75.41-1.25.74-1.54-2.58-.29-5.29-1.29-5.29-5.74 0-1.27.45-2.31 1.19-3.12-.12-.3-.52-1.48.12-3.08 0 0 .98-.31 3.17 1.2A10.96 10.96 0 0 1 12 6.01c.98 0 1.96.13 2.88.39 2.2-1.51 3.17-1.2 3.17-1.2.64 1.6.24 2.78.12 3.08.74.81 1.19 1.85 1.19 3.12 0 4.46-2.72 5.44-5.31 5.73.42.36.79 1.07.79 2.16v3.05c0 .31.21.67.8.56A11.5 11.5 0 0 0 12 .5Z"/>
</svg>
