<svg xmlns="http://www.w3.org/2000/svg" viewBox="0 0 32 32" role="img" aria-labelledby="title">
  <title id="title">WhatsApp</title>
  <path fill="#25D366" d="M16.03 3.5A12.4 12.4 0 0 0 5.48 22.44L4 28.5l6.2-1.45A12.39 12.39 0 1 0 16.03 3.5Z"/>
  <path fill="#ffffff" d="M23.24 19.4c-.36 1.02-1.8 1.88-2.64 2-.7.1-1.6.15-2.58-.16-.6-.19-1.37-.45-2.35-.88-4.14-1.78-6.84-5.94-7.05-6.22-.2-.27-1.68-2.24-1.68-4.27s1.06-3.03 1.44-3.44c.37-.42.82-.52 1.09-.52h.79c.25.01.6-.09.94.72.36.87 1.22 2.98 1.32 3.2.1.2.17.46.03.73-.13.28-.2.45-.41.7-.2.24-.43.54-.61.72-.2.2-.41.43-.18.84.23.42 1.03 1.7 2.2 2.75 1.51 1.35 2.79 1.77 3.2 1.97.42.2.66.17.91-.1.25-.28 1.05-1.23 1.33-1.65.28-.41.56-.35.94-.2.38.14 2.44 1.15 2.86 1.36.41.2.69.31.79.48.1.18.1 1.05-.26 2.07Z"/>
</svg>
